<mxfile host="app.diagrams.net" modified="2020-08-26T16:54:05.820Z" agent="5.0 (Windows NT 10.0; Win64; x64) AppleWebKit/537.36 (KHTML, like Gecko) Chrome/84.0.4147.135 Safari/537.36" etag="rvoMfsh70aVupF2rNDPZ" version="13.6.5" type="github">
  <diagram id="p36dRtt4P4fjZN_GKLbB" name="Page-1">
    <mxGraphModel dx="1673" dy="896" grid="1" gridSize="10" guides="1" tooltips="1" connect="1" arrows="1" fold="1" page="1" pageScale="1" pageWidth="850" pageHeight="1100" math="0" shadow="0">
      <root>
        <mxCell id="0" />
        <mxCell id="1" parent="0" />
        <mxCell id="_Rvc9mm6k0_gzKv4h-8a-1" value="" style="rounded=0;whiteSpace=wrap;html=1;" vertex="1" parent="1">
          <mxGeometry width="850" height="760" as="geometry" />
        </mxCell>
        <object label="" id="_Rvc9mm6k0_gzKv4h-8a-2">
          <mxCell style="rounded=0;whiteSpace=wrap;html=1;" vertex="1" parent="1">
            <mxGeometry width="850" height="100" as="geometry" />
          </mxCell>
        </object>
        <mxCell id="_Rvc9mm6k0_gzKv4h-8a-3" value="&lt;font style=&quot;font-size: 36px&quot;&gt;PapperShare&lt;/font&gt;" style="text;html=1;strokeColor=none;fillColor=none;align=center;verticalAlign=middle;whiteSpace=wrap;rounded=0;" vertex="1" parent="1">
          <mxGeometry x="325" y="30" width="200" height="20" as="geometry" />
        </mxCell>
        <mxCell id="_Rvc9mm6k0_gzKv4h-8a-4" value="" style="rounded=0;whiteSpace=wrap;html=1;" vertex="1" parent="1">
          <mxGeometry y="100" width="850" height="80" as="geometry" />
        </mxCell>
        <mxCell id="_Rvc9mm6k0_gzKv4h-8a-5" value="&lt;font style=&quot;font-size: 24px&quot;&gt;Give Away&lt;/font&gt;" style="text;html=1;strokeColor=none;fillColor=none;align=center;verticalAlign=middle;whiteSpace=wrap;rounded=0;" vertex="1" parent="1">
          <mxGeometry y="115" width="140" height="50" as="geometry" />
        </mxCell>
        <mxCell id="_Rvc9mm6k0_gzKv4h-8a-6" value="&lt;font style=&quot;font-size: 24px&quot;&gt;Find Reference&lt;/font&gt;" style="text;html=1;strokeColor=none;fillColor=none;align=center;verticalAlign=middle;whiteSpace=wrap;rounded=0;" vertex="1" parent="1">
          <mxGeometry x="190" y="115" width="170" height="50" as="geometry" />
        </mxCell>
        <mxCell id="_Rvc9mm6k0_gzKv4h-8a-7" value="&lt;font style=&quot;font-size: 24px&quot;&gt;How this works&lt;/font&gt;" style="text;html=1;strokeColor=none;fillColor=none;align=center;verticalAlign=middle;whiteSpace=wrap;rounded=0;" vertex="1" parent="1">
          <mxGeometry x="670" y="115" width="170" height="50" as="geometry" />
        </mxCell>
        <mxCell id="_Rvc9mm6k0_gzKv4h-8a-8" value="" style="rounded=1;whiteSpace=wrap;html=1;" vertex="1" parent="1">
          <mxGeometry x="75" y="220" width="700" height="470" as="geometry" />
        </mxCell>
        <mxCell id="_Rvc9mm6k0_gzKv4h-8a-9" value="&lt;h1&gt;PapperShare project&lt;/h1&gt;&lt;p&gt;How the platform works.&lt;/p&gt;&lt;p&gt;&lt;br&gt;&lt;/p&gt;&lt;p&gt;Saving the earth.&lt;/p&gt;&lt;p&gt;&lt;br&gt;&lt;/p&gt;&lt;p&gt;Saving you money!&lt;/p&gt;" style="text;html=1;strokeColor=none;fillColor=none;spacing=5;spacingTop=-20;whiteSpace=wrap;overflow=hidden;rounded=0;" vertex="1" parent="1">
          <mxGeometry x="140" y="260" width="620" height="380" as="geometry" />
        </mxCell>
        <mxCell id="_Rvc9mm6k0_gzKv4h-8a-11" value="" style="rounded=0;whiteSpace=wrap;html=1;" vertex="1" parent="1">
          <mxGeometry x="560" y="320" width="170" height="310" as="geometry" />
        </mxCell>
        <mxCell id="_Rvc9mm6k0_gzKv4h-8a-12" value="&lt;font style=&quot;font-size: 24px&quot;&gt;Symbol&lt;/font&gt;" style="text;html=1;strokeColor=none;fillColor=none;align=center;verticalAlign=middle;whiteSpace=wrap;rounded=0;" vertex="1" parent="1">
          <mxGeometry x="625" y="465" width="40" height="20" as="geometry" />
        </mxCell>
      </root>
    </mxGraphModel>
  </diagram>
</mxfile>
